<?xml version="1.0" encoding="utf-8"?>
<!-- Generator: Adobe Illustrator 21.0.0, SVG Export Plug-In . SVG Version: 6.00 Build 0)  -->
<svg version="1.1" id="Layer_1" xmlns="http://www.w3.org/2000/svg" xmlns:xlink="http://www.w3.org/1999/xlink" x="0px" y="0px"
	 viewBox="0 0 493 161" style="enable-background:new 0 0 493 161;" xml:space="preserve">
<style type="text/css">
	.st0{fill:none;}
	.st1{fill:#2D3134;}
	.st2{font-family:'Roboto-Bold';}
	.st3{font-size:72px;}
	.st4{fill:#AAAAAA;}
</style>
<title>Ghost Logo</title>
<rect x="110" y="50.5" class="st0" width="379" height="72"/>
<text transform="matrix(1 0 0 1 110.1309 104.495)" class="st1 st2 st3">Ajat Prabha</text>
<g>
	<path class="st4" d="M117.2,31.7c-0.7-1-1.8-1.6-3-1.6H55.1c-1.2,0-2.3,0.6-3,1.5c-0.3,0.4-0.5,1-0.6,1.5h-0.4
		c-0.5,0-0.8,0.4-0.7,0.9L80,130.4c0.1,0.3,0.3,0.5,0.6,0.5l0.4,0l0.1,0.4c0.5,1.5,1.8,2.6,3.4,2.6l4.2,0.1c1.2,0,2.3-0.6,3-1.5
		s0.9-2.2,0.6-3.3L65.4,41.5h37.2L90,77.3l-10.1-32c-0.5-1.5-1.9-2.6-3.5-2.6l-4.1,0c-1.2,0-2.3,0.6-3,1.5c-0.3,0.4-0.5,1-0.6,1.5
		l-0.4,0c-0.5,0-0.8,0.5-0.6,0.9l17.7,56.1c0.1,0.4,0.6,0.6,1,0.4l0.2,0.5c0.5,1.5,1.9,2.6,3.5,2.6c1.6,0,3-1,3.5-2.5l24.2-68.6
		C118.1,34,117.9,32.7,117.2,31.7z"/>
	<path class="st4" d="M47.1,33.6c-0.5-1.4-1.8-2.4-3.3-2.4c-1.4,0-2.7,0.9-3.2,2.2l-0.4,1.1c-0.2-0.3-0.6-0.3-0.8,0L2.3,130
		c-0.2,0.4,0.1,0.9,0.6,0.9h0.4c0.1,0.5,0.3,1,0.6,1.4c0.7,1,1.8,1.6,3,1.6h3.9c1.4,0,2.7-0.8,3.4-2c0.1,0.2,0.2,0.3,0.3,0.5
		c0.7,1,1.8,1.6,3,1.6h0l55.9-0.1c1.2,0,2.3-0.6,3-1.5s0.9-2.2,0.6-3.3L47.1,33.6z M62.8,123H19.3c-0.6,0-1.2,0.1-1.7,0.4l25.1-64.7
		L62.8,123z"/>
</g>
</svg>
